# xmcd
#
# Track frame offsets: 
#        150
#        13058
#        32600
#        43125
#        54357
#        67343
#        79517
#        92947
#        103239
#        121211
#        136638
#        151178
#        170547
#        180285
#        199326
#        212948
#        222985
#        233536
#        257496
#        272963
#
# Disc length: 3923 seconds
#
# Revision: 6
# Processed by: cddbd v1.5.2PL0 Copyright (c) Steve Scherf et al.
# Submitted via: ExactAudioCopy v1.0b3
#
DISCID=190f5114
DTITLE=Various Artist - Best Jazz 50 - Classic Jazz Vocals [CD1)
DYEAR=2006
DGENRE=Jazz
TTITLE0=Julie London - I Left My Heart In San Francisco
TTITLE1=June Christy - Something Cool
TTITLE2=Chet Baker - My Funny Valentine
TTITLE3=Ella Fitzgerald - Misty Blue
TTITLE4=Nancy Wilson - Darn That Dream
TTITLE5=Jo Stafford - Autumn In New York
TTITLE6=Dinah Shore - April In Paris
TTITLE7=Abbey Lincoln - Do Nothing Til You Hear From Me
TTITLE8=Mark Murphy - Day In-Day Out
TTITLE9=Dinah Shore - It Had To Be You
TTITLE10=Jack Jones - Angel Eyes
TTITLE11=Carmen McRae - The Man I Love
TTITLE12=Annie Ross - It Dont Mean A Thing
TTITLE13=Sue Raney - Heres That Rainy Day
TTITLE14=Jack Teagerden - Stars Fell On Alabama
TTITLE15=Billie Holiday - Blue Moon
TTITLE16=Dakota Station - A Foggy Day
TTITLE17=Dianne Reeves - Exactly Like You
TTITLE18=Lou Rawls - I Ain't Got Nothin But The Blues
TTITLE19=Lena Horne - Something To Live For
EXTD=YEAR: 2006 ID3G:   8
EXTT0=
EXTT1=
EXTT2=
EXTT3=
EXTT4=
EXTT5=
EXTT6=
EXTT7=
EXTT8=
EXTT9=
EXTT10=
EXTT11=
EXTT12=
EXTT13=
EXTT14=
EXTT15=
EXTT16=
EXTT17=
EXTT18=
EXTT19=
PLAYORDER=
